<svg aria-hidden="true" style="width:0;height:0;position:absolute;overflow:hidden" xmlns="http://www.w3.org/2000/svg"><defs><symbol id="icon-btn-arrow" viewBox="0 0 19 32"><path fill="none" stroke="#fff" style="stroke:var(--color1,#fff)" stroke-linejoin="round" stroke-linecap="round" stroke-width="6.4" d="M3.2 3.2 14.752 16 3.2 28.8"/></symbol><symbol id="icon-arrow-large" viewBox="0 0 32 32"><path d="m19.414 27.414 10-10a2 2 0 0 0 0-2.828l-10-10a2 2 0 1 0-2.828 2.828L23.172 14H4a2 2 0 1 0 0 4h19.172l-6.586 6.586c-.39.39-.586.902-.586 1.414s.195 1.024.586 1.414a2 2 0 0 0 2.828 0z"/></symbol><symbol id="icon-Vector-1" viewBox="0 0 22 32"><path fill="none" stroke="#d41443" style="stroke:var(--color1,#d41443)" stroke-linejoin="round" stroke-linecap="round" stroke-width="6.4" d="M4.544 3.2 18.246 16 4.544 28.8"/></symbol><symbol id="icon-burger-menu" viewBox="0 0 46 32"><path fill="none" stroke-width="2.286" d="M0 2.286h45.714M0 16h45.714M0 29.714h45.714"/></symbol><symbol id="icon-close-btn" viewBox="0 0 32 32"><path fill="#fff" stroke-width="2" d="m2.52 2 26.96 28M2 29.48 30 2.52"/></symbol><symbol id="icon-dots" viewBox="0 0 139 32"><path d="M85.333 16c0 8.837-7.163 16-16 16s-16-7.163-16-16 7.163-16 16-16 16 7.163 16 16zM32 16c0 8.837-7.163 16-16 16S0 24.837 0 16 7.163 0 16 0s16 7.163 16 16zM138.667 16c0 8.837-7.163 16-16 16s-16-7.163-16-16 7.163-16 16-16 16 7.163 16 16z"/></symbol><symbol id="icon-ellipse" viewBox="0 0 32 32"><path fill="#ffa5ba" style="fill:var(--color3,#ffa5ba)" d="M32.192 16c0 8.837-7.206 16-16.096 16S0 24.837 0 16 7.206 0 16.096 0s16.096 7.163 16.096 16z"/></symbol><symbol id="icon-dot" viewBox="0 0 32 32"><path d="M32 16c0 8.837-7.163 16-16 16S0 24.837 0 16 7.163 0 16 0s16 7.163 16 16z"/></symbol><symbol id="icon-facebook" viewBox="0 0 16 32"><path fill="#fff" style="fill:var(--color1,#fff)" d="M14.266 15.97H10.09v15.39H3.764V15.968H.753V10.56h3.008V7.062C3.761 4.558 4.945.64 10.145.64l4.688.019v5.25h-3.4c-.557 0-1.342.282-1.342 1.475v3.184h4.73l-.554 5.4z"/></symbol><symbol id="icon-github" viewBox="0 0 32 32"><path fill="#fff" style="fill:var(--color1,#fff)" d="M16 .941C7.728.941.941 7.728.941 16c0 7.058 4.954 13.469 11.53 15.059v-4.982c-.651.142-1.251.147-1.915-.048-.89-.264-1.613-.856-2.149-1.76-.342-.578-.949-1.203-1.581-1.157l-.155-1.76c1.368-.115 2.55.835 3.253 2.016.312.523.672.832 1.133.968.445.131.923.067 1.482-.128.139-1.117.651-1.536 1.037-2.123-3.922-.586-5.485-2.667-6.106-4.309-.822-2.181-.381-4.906 1.072-6.627.029-.034.08-.122.061-.182-.667-2.014.144-3.68.176-3.856.768.227.893-.229 3.341 1.258l.422.254c.176.106.122.045.299.032a12.42 12.42 0 0 1 3.15-.446h.01c1.147.018 2.247.183 3.294.478l-.09-.022.138.013c-.013 0 .037-.008.12-.058 3.056-1.851 2.947-1.246 3.766-1.512.03.176.832 1.869.171 3.856-.088.275 2.651 2.784 1.133 6.81-.621 1.643-2.184 3.725-6.106 4.31.502.766 1.107 1.174 1.104 2.755v6.219c6.576-1.59 11.53-8 11.53-15.059 0-8.27-6.787-15.058-15.059-15.058z"/></symbol><symbol id="icon-telegram" viewBox="0 0 40 32"><path fill="#fff" style="fill:var(--color1,#fff)" d="m16.206 20.75-.636 8.34c.908 0 1.302-.366 1.774-.802l4.26-3.8 8.83 6.034c1.62.84 2.76.398 3.196-1.39l5.796-25.346h.002c.514-2.236-.866-3.108-2.444-2.56L2.92 13.398c-2.324.84-2.29 2.052-.396 2.6l8.71 2.528 20.23-11.814c.952-.588 1.816-.264 1.104.326L16.206 20.75z"/></symbol><symbol id="icon-quotes" viewBox="0 0 43 32"><path fill="#e1e1e1" style="fill:var(--color4,#e1e1e1)" d="M32.014 0c1.928 0 3.75.52 5.464 1.561s3.107 2.537 4.178 4.488c1.029 1.951 1.543 4.25 1.543 6.894s-.643 5.225-1.928 7.74c-.429.91-1.2 2.081-2.315 3.512a63.65 63.65 0 0 1-3.214 3.707L31.692 32l-2.893-4.813a22.225 22.225 0 0 0 5.306-4.646l.03-.037c1.542-1.821 2.314-3.49 2.314-5.008 0-.781-.171-1.41-.514-1.886a8.361 8.361 0 0 1-5.014 1.626c-1.328 0-2.593-.412-3.793-1.236a8.638 8.638 0 0 1-2.935-3.078l-.022-.043c-.771-1.258-1.157-2.558-1.157-3.902 0-1.518.45-2.97 1.35-4.358a10.313 10.313 0 0 1 3.364-3.356l.044-.025C29.142.414 30.556.002 32.014.002zM8.936 0c1.928 0 3.75.52 5.464 1.561s3.107 2.536 4.178 4.488c1.029 1.951 1.543 4.25 1.543 6.894 0 1.864-.236 3.534-.707 5.008-.472 1.518-1.286 3.1-2.443 4.748-1.114 1.561-2.164 2.862-3.15 3.902-.986 1.084-2.7 2.883-5.143 5.398l-2.893-4.813a22.225 22.225 0 0 0 5.306-4.646l.03-.037c1.542-1.821 2.314-3.49 2.314-5.008 0-.781-.172-1.41-.514-1.886a8.361 8.361 0 0 1-5.014 1.626c-1.328 0-2.593-.412-3.793-1.236a8.638 8.638 0 0 1-2.935-3.078l-.022-.043C.386 11.62 0 10.32 0 8.976c0-1.518.429-2.97 1.286-4.358A10.313 10.313 0 0 1 4.65 1.262l.045-.025C6.065.413 7.479.001 8.937.001z"/></symbol><symbol id="icon-house" viewBox="0 0 35 32"><path fill="#d31342" style="fill:var(--color5,#d31342)" d="M32.64 15.4a1.539 1.539 0 0 0-.128-2.223l-.002-.002L17.737.426a1.849 1.849 0 0 0-1.184-.425c-.466 0-.892.171-1.218.454l.002-.002L.516 13.856a1.53 1.53 0 0 0-.072 2.222l.373.381c.613.635 1.611.709 2.224.168l1.107-.979v14.328a1.6 1.6 0 0 0 1.6 1.589H11.55a1.6 1.6 0 0 0 1.6-1.589V19.951h7.371v10.024c-.013.88.624 1.589 1.515 1.589h6.134a1.6 1.6 0 0 0 1.6-1.589V15.849l.685.592c.376.325 1.168.064 1.765-.587l.421-.453z"/></symbol><symbol id="icon-name" viewBox="0 0 32 32"><path d="M16 16a5.333 5.333 0 1 0 0-10.666A5.333 5.333 0 1 0 16 16zm0 2.667c-3.561 0-10.667 1.787-10.667 5.333v1.333c0 .732.599 1.333 1.333 1.333h18.667c.732 0 1.333-.601 1.333-1.333V24c0-3.547-7.108-5.333-10.667-5.333z"/></symbol><symbol id="icon-tel" viewBox="0 0 32 32"><path d="m27.419 20.853-4.201-.48a3.28 3.28 0 0 0-2.713.941l-3.045 3.045c-4.718-2.435-8.467-6.185-10.835-10.764l-.065-.139L9.623 10.4a3.282 3.282 0 0 0 .942-2.729l.002.016-.48-4.169A3.314 3.314 0 0 0 6.8.592H3.932C2.062.59.508 2.144.622 4.014 1.5 18.14 12.796 29.42 26.908 30.297c1.867.114 3.424-1.44 3.424-3.31V24.11a3.279 3.279 0 0 0-2.897-3.256l-.015-.001z"/></symbol><symbol id="icon-mail" viewBox="0 0 43 32"><path d="M37.333 0h-32c-2.2 0-3.981 1.8-3.981 4l-.019 24c0 2.2 1.8 4 4 4h32c2.2 0 4-1.8 4-4V4c0-2.2-1.8-4-4-4zm-.8 8.501-14.139 8.837a2.02 2.02 0 0 1-2.129-.005l.009.005-14.141-8.84A1.7 1.7 0 1 1 7.94 5.621l-.006-.004 13.4 8.381 13.4-8.381a1.7 1.7 0 1 1 1.808 2.876l-.008.004z"/></symbol><symbol id="icon-check" viewBox="0 0 42 32"><path fill="#fff" style="fill:var(--color1,#fff);stroke:var(--color1,#fff)" stroke="#fff" stroke-width=".64" d="m6.262 15.206-.221-.211-.221.208-3.085 2.925.243.234 11.408 10.88.221-.211L38.863 5.892l-.243-.23-3.043-2.902-.221.211-20.97 19.987-8.125-7.75z"/></symbol></defs></svg>